<svg xmlns="http://www.w3.org/2000/svg" xmlns:xlink="http://www.w3.org/1999/xlink" width="500" zoomAndPan="magnify" viewBox="0 0 375 374.999991" height="500" preserveAspectRatio="xMidYMid meet" version="1.0"><defs><filter x="0%" y="0%" width="100%" height="100%" id="id1"><feColorMatrix values="0 0 0 0 1 0 0 0 0 1 0 0 0 0 1 0 0 0 1 0" color-interpolation-filters="sRGB"/></filter><g/><mask id="id2"><g filter="url(#id1)"><rect x="-37.5" width="450" fill="#000000" y="-37.499999" height="449.999989" fill-opacity="0.4392"/></g></mask><clipPath id="id3"><path d="M 0.558594 0.359375 L 193.039062 0.359375 L 193.039062 157 L 0.558594 157 Z M 0.558594 0.359375 " clip-rule="nonzero"/></clipPath><clipPath id="id4"><rect x="0" width="194" y="0" height="158"/></clipPath></defs><g mask="url(#id2)"><g transform="matrix(1, 0, 0, 1, 88, 105)"><g clip-path="url(#id4)"><g clip-path="url(#id3)"><path fill="#ffffff" d="M 183.816406 47.820312 C 175.308594 33.296875 162.160156 21.75 147.304688 14 C 129.863281 4.882812 110.042969 1.140625 90.503906 0.609375 C 80.234375 0.335938 69.886719 0.867188 59.6875 2.160156 C 59.011719 2.246094 58.34375 2.335938 57.667969 2.433594 C 52.847656 3.109375 48.054688 4.050781 43.410156 5.511719 C 40.019531 6.578125 37.207031 7.734375 34.113281 9.558594 C 31.183594 11.285156 28.351562 13.175781 25.863281 15.515625 C 20.992188 20.105469 16.855469 25.554688 13.242188 31.082031 C 8.429688 38.429688 4.851562 46.585938 2.726562 55.121094 C 0.0429688 65.890625 -0.761719 78.75 4.03125 88.804688 C 4.394531 95.078125 5.753906 101.308594 8.339844 107.042969 C 11.996094 115.15625 18.101562 121.398438 25.527344 126.183594 C 33.945312 131.59375 43.351562 135.648438 52.453125 139.765625 C 61.773438 143.980469 71.257812 147.859375 81.039062 150.871094 C 98.910156 156.378906 117.851562 158.796875 136.3125 154.859375 C 152.324219 151.449219 167.628906 143.265625 177.417969 129.867188 C 184.875 119.664062 188.558594 107.210938 188.941406 94.664062 C 189.007812 94.539062 189.085938 94.417969 189.15625 94.300781 C 197.023438 79.75 191.644531 61.1875 183.816406 47.820312 Z M 182.511719 119 C 175.683594 134.316406 162.277344 145.234375 146.679688 150.859375 C 110.128906 164.023438 72.328125 148.4375 39.421875 132.535156 C 31.300781 128.601562 23.011719 124.390625 16.710938 117.773438 C 10.703125 111.460938 7.136719 103.25 5.707031 94.714844 C 5.5 93.488281 5.34375 92.273438 5.226562 91.058594 C 7.3125 94.605469 10.203125 97.722656 14.082031 100.152344 C 21.460938 104.777344 30.222656 106.40625 38.375 109.160156 C 48.171875 112.460938 57.324219 117.402344 66.027344 122.9375 C 74.582031 128.386719 82.566406 134.660156 91.070312 140.175781 C 98.558594 145.039062 106.828125 149.273438 115.84375 150.09375 C 123.328125 150.78125 131.363281 149.222656 137.320312 144.410156 C 144.589844 138.539062 145.835938 128.78125 151.546875 121.78125 C 161.179688 109.984375 179.199219 109.148438 187.851562 96.390625 C 187.429688 104.171875 185.695312 111.863281 182.511719 119 Z M 187.941406 94.085938 C 185.65625 98.035156 182.421875 101.398438 178.328125 104.023438 C 172.136719 107.992188 165.101562 110.433594 158.847656 114.304688 C 155.871094 116.148438 153.058594 118.332031 150.832031 121.058594 C 148.238281 124.234375 146.570312 127.984375 144.855469 131.679688 C 143.042969 135.589844 141.113281 139.511719 137.9375 142.511719 C 134.980469 145.3125 131.246094 147.183594 127.316406 148.203125 C 108.816406 153.027344 92.660156 140.15625 78.539062 130.160156 C 70.671875 124.59375 62.617188 119.234375 54.050781 114.785156 C 46.183594 110.699219 38.011719 107.914062 29.554688 105.367188 C 21.238281 102.867188 12.46875 99.789062 7.203125 92.421875 C 6.382812 91.265625 5.675781 90.050781 5.050781 88.792969 C 4.746094 83.492188 5.195312 78.160156 6.234375 72.949219 C 6.675781 70.761719 7.203125 68.585938 7.832031 66.441406 C 8.9375 62.636719 10.292969 58.816406 11.808594 55.148438 C 13.300781 51.554688 15.121094 48.105469 17.289062 44.871094 C 22.441406 37.195312 28.871094 30.707031 36.238281 25.132812 C 40.15625 22.171875 44.742188 19.847656 49.222656 17.851562 C 67.496094 9.6875 88.238281 8.011719 107.867188 11.273438 C 140.691406 16.742188 173.871094 37.175781 184.453125 70.234375 C 186.910156 77.886719 188.117188 86.011719 187.941406 94.085938 Z M 188.96875 92.144531 C 188.960938 89.070312 188.742188 86 188.351562 82.964844 C 183.726562 47.75 154.125 22.730469 121.40625 13.292969 C 115.214844 11.507812 108.875 10.246094 102.476562 9.519531 C 93.824219 8.539062 85.054688 8.539062 76.414062 9.597656 C 67.847656 10.648438 59.402344 12.734375 51.386719 15.957031 C 47.398438 17.566406 43.527344 19.449219 39.816406 21.613281 C 35.816406 23.945312 32.320312 26.757812 28.898438 29.875 C 27.234375 31.394531 25.636719 32.972656 24.109375 34.628906 C 21.050781 37.929688 18.289062 41.488281 15.835938 45.261719 C 13.320312 49.121094 11.449219 53.40625 9.734375 57.679688 C 7.929688 62.167969 6.441406 66.78125 5.421875 71.515625 C 4.667969 75.035156 4.175781 78.613281 4 82.21875 C 3.933594 83.5625 3.914062 84.914062 3.941406 86.265625 C 1.679688 80.316406 1.257812 73.632812 1.746094 67.359375 C 3.117188 49.503906 11.113281 33.558594 23 20.476562 C 28.871094 14.019531 35.09375 9.234375 43.460938 6.492188 C 52.476562 3.542969 62.007812 2.582031 71.433594 2.03125 C 72.992188 1.945312 74.542969 1.867188 76.097656 1.789062 C 95.734375 0.867188 115.753906 2.648438 134.324219 9.402344 C 149.992188 15.105469 164.414062 24.5625 175.183594 37.363281 C 185.558594 49.699219 193.613281 66.519531 191.585938 83.011719 C 191.183594 86.296875 190.292969 89.351562 188.96875 92.144531 Z M 188.96875 92.144531 " fill-opacity="1" fill-rule="nonzero"/></g></g></g></g><g fill="#ffffff" fill-opacity="1"><g transform="translate(106.040366, 187.075622)"><g><path d="M 11.5 -2.765625 C 11.5 -2.265625 11.582031 -1.894531 11.75 -1.65625 C 11.925781 -1.425781 12.191406 -1.253906 12.546875 -1.140625 L 12.046875 0.28125 C 11.503906 0.207031 11.023438 0.0351562 10.609375 -0.234375 C 10.203125 -0.515625 9.90625 -0.9375 9.71875 -1.5 C 9.257812 -0.914062 8.6875 -0.472656 8 -0.171875 C 7.320312 0.128906 6.570312 0.28125 5.75 0.28125 C 4.476562 0.28125 3.476562 -0.078125 2.75 -0.796875 C 2.019531 -1.515625 1.65625 -2.460938 1.65625 -3.640625 C 1.65625 -4.953125 2.160156 -5.957031 3.171875 -6.65625 C 4.191406 -7.351562 5.664062 -7.703125 7.59375 -7.703125 L 9.46875 -7.703125 L 9.46875 -8.765625 C 9.46875 -9.671875 9.195312 -10.316406 8.65625 -10.703125 C 8.125 -11.085938 7.382812 -11.28125 6.4375 -11.28125 C 6.019531 -11.28125 5.53125 -11.226562 4.96875 -11.125 C 4.40625 -11.019531 3.796875 -10.851562 3.140625 -10.625 L 2.609375 -12.15625 C 3.390625 -12.445312 4.117188 -12.648438 4.796875 -12.765625 C 5.484375 -12.890625 6.140625 -12.953125 6.765625 -12.953125 C 8.335938 -12.953125 9.519531 -12.582031 10.3125 -11.84375 C 11.101562 -11.113281 11.5 -10.117188 11.5 -8.859375 Z M 6.265625 -1.265625 C 6.890625 -1.265625 7.488281 -1.421875 8.0625 -1.734375 C 8.632812 -2.054688 9.101562 -2.5 9.46875 -3.0625 L 9.46875 -6.328125 L 7.640625 -6.328125 C 6.242188 -6.328125 5.253906 -6.082031 4.671875 -5.59375 C 4.097656 -5.113281 3.8125 -4.46875 3.8125 -3.65625 C 3.8125 -2.875 4.015625 -2.28125 4.421875 -1.875 C 4.828125 -1.46875 5.441406 -1.265625 6.265625 -1.265625 Z M 6.265625 -1.265625 "/></g></g></g><g fill="#ffffff" fill-opacity="1"><g transform="translate(120.489538, 187.075622)"><g><path d="M 4.4375 -11.03125 C 4.90625 -11.644531 5.441406 -12.117188 6.046875 -12.453125 C 6.660156 -12.785156 7.332031 -12.953125 8.0625 -12.953125 C 9.195312 -12.953125 10.113281 -12.675781 10.8125 -12.125 C 11.507812 -11.582031 12.015625 -10.816406 12.328125 -9.828125 C 12.648438 -8.835938 12.8125 -7.675781 12.8125 -6.34375 C 12.8125 -5.070312 12.617188 -3.9375 12.234375 -2.9375 C 11.847656 -1.9375 11.285156 -1.148438 10.546875 -0.578125 C 9.804688 -0.00390625 8.890625 0.28125 7.796875 0.28125 C 6.328125 0.28125 5.175781 -0.25 4.34375 -1.3125 L 4.1875 0 L 2.421875 0 L 2.421875 -17.796875 L 4.4375 -18.046875 Z M 7.3125 -1.359375 C 8.375 -1.359375 9.1875 -1.765625 9.75 -2.578125 C 10.320312 -3.398438 10.609375 -4.660156 10.609375 -6.359375 C 10.609375 -7.460938 10.492188 -8.382812 10.265625 -9.125 C 10.046875 -9.863281 9.710938 -10.414062 9.265625 -10.78125 C 8.816406 -11.144531 8.269531 -11.328125 7.625 -11.328125 C 6.914062 -11.328125 6.296875 -11.113281 5.765625 -10.6875 C 5.234375 -10.269531 4.789062 -9.800781 4.4375 -9.28125 L 4.4375 -3 C 4.769531 -2.5 5.1875 -2.097656 5.6875 -1.796875 C 6.1875 -1.503906 6.726562 -1.359375 7.3125 -1.359375 Z M 7.3125 -1.359375 "/></g></g></g><g fill="#ffffff" fill-opacity="1"><g transform="translate(134.93871, 187.075622)"><g><path d="M 2.546875 0 L 2.546875 -1.546875 L 4.515625 -1.546875 L 4.515625 -11.125 L 2.546875 -11.125 L 2.546875 -12.6875 L 6.0625 -12.6875 L 6.4375 -9.6875 C 6.925781 -10.726562 7.519531 -11.535156 8.21875 -12.109375 C 8.914062 -12.679688 9.835938 -12.96875 10.984375 -12.96875 C 11.335938 -12.96875 11.648438 -12.941406 11.921875 -12.890625 C 12.203125 -12.835938 12.488281 -12.769531 12.78125 -12.6875 L 12.1875 -10.875 C 11.925781 -10.945312 11.6875 -11 11.46875 -11.03125 C 11.25 -11.070312 11 -11.09375 10.71875 -11.09375 C 9.75 -11.09375 8.914062 -10.742188 8.21875 -10.046875 C 7.519531 -9.359375 6.960938 -8.316406 6.546875 -6.921875 L 6.546875 -1.546875 L 9.125 -1.546875 L 9.125 0 Z M 10.828125 -8.390625 L 10.828125 -11.15625 L 11.03125 -12.6875 L 12.78125 -12.6875 L 12.5 -8.390625 Z M 10.828125 -8.390625 "/></g></g></g><g fill="#ffffff" fill-opacity="1"><g transform="translate(149.387882, 187.075622)"><g><path d="M 8.84375 -12.6875 L 8.84375 -1.609375 L 12.421875 -1.609375 L 12.421875 0 L 2.90625 0 L 2.90625 -1.609375 L 6.8125 -1.609375 L 6.8125 -11.078125 L 3.03125 -11.078125 L 3.03125 -12.6875 Z M 7.234375 -18.625 C 7.679688 -18.625 8.035156 -18.488281 8.296875 -18.21875 C 8.566406 -17.945312 8.703125 -17.613281 8.703125 -17.21875 C 8.703125 -16.800781 8.566406 -16.453125 8.296875 -16.171875 C 8.035156 -15.898438 7.679688 -15.765625 7.234375 -15.765625 C 6.804688 -15.765625 6.453125 -15.898438 6.171875 -16.171875 C 5.898438 -16.453125 5.765625 -16.800781 5.765625 -17.21875 C 5.765625 -17.613281 5.898438 -17.945312 6.171875 -18.21875 C 6.453125 -18.488281 6.804688 -18.625 7.234375 -18.625 Z M 7.234375 -18.625 "/></g></g></g><g fill="#ffffff" fill-opacity="1"><g transform="translate(163.837055, 187.075622)"><g><path d="M 7.359375 -17.796875 L 7.359375 -3.125 C 7.359375 -2.5 7.550781 -2.054688 7.9375 -1.796875 C 8.332031 -1.535156 8.835938 -1.40625 9.453125 -1.40625 C 9.835938 -1.40625 10.203125 -1.445312 10.546875 -1.53125 C 10.898438 -1.613281 11.25 -1.722656 11.59375 -1.859375 L 12.125 -0.375 C 11.78125 -0.207031 11.351562 -0.0546875 10.84375 0.078125 C 10.332031 0.210938 9.757812 0.28125 9.125 0.28125 C 8 0.28125 7.085938 -0.03125 6.390625 -0.65625 C 5.691406 -1.28125 5.34375 -2.140625 5.34375 -3.234375 L 5.34375 -16.1875 L 1.453125 -16.1875 L 1.453125 -17.796875 Z M 7.359375 -17.796875 "/></g></g></g><g fill="#ffffff" fill-opacity="1"><g transform="translate(178.286227, 187.075622)"><g><path d="M 1.203125 4.375 L 1.203125 2.609375 L 13.25 2.609375 L 13.25 4.375 Z M 1.203125 4.375 "/></g></g></g><g fill="#ffffff" fill-opacity="1"><g transform="translate(192.735399, 187.075622)"><g><path d="M 4.4375 -11.03125 C 4.90625 -11.644531 5.441406 -12.117188 6.046875 -12.453125 C 6.660156 -12.785156 7.332031 -12.953125 8.0625 -12.953125 C 9.195312 -12.953125 10.113281 -12.675781 10.8125 -12.125 C 11.507812 -11.582031 12.015625 -10.816406 12.328125 -9.828125 C 12.648438 -8.835938 12.8125 -7.675781 12.8125 -6.34375 C 12.8125 -5.070312 12.617188 -3.9375 12.234375 -2.9375 C 11.847656 -1.9375 11.285156 -1.148438 10.546875 -0.578125 C 9.804688 -0.00390625 8.890625 0.28125 7.796875 0.28125 C 6.328125 0.28125 5.175781 -0.25 4.34375 -1.3125 L 4.1875 0 L 2.421875 0 L 2.421875 -17.796875 L 4.4375 -18.046875 Z M 7.3125 -1.359375 C 8.375 -1.359375 9.1875 -1.765625 9.75 -2.578125 C 10.320312 -3.398438 10.609375 -4.660156 10.609375 -6.359375 C 10.609375 -7.460938 10.492188 -8.382812 10.265625 -9.125 C 10.046875 -9.863281 9.710938 -10.414062 9.265625 -10.78125 C 8.816406 -11.144531 8.269531 -11.328125 7.625 -11.328125 C 6.914062 -11.328125 6.296875 -11.113281 5.765625 -10.6875 C 5.234375 -10.269531 4.789062 -9.800781 4.4375 -9.28125 L 4.4375 -3 C 4.769531 -2.5 5.1875 -2.097656 5.6875 -1.796875 C 6.1875 -1.503906 6.726562 -1.359375 7.3125 -1.359375 Z M 7.3125 -1.359375 "/></g></g></g><g fill="#ffffff" fill-opacity="1"><g transform="translate(207.184571, 187.075622)"><g><path d="M 11.5 -2.765625 C 11.5 -2.265625 11.582031 -1.894531 11.75 -1.65625 C 11.925781 -1.425781 12.191406 -1.253906 12.546875 -1.140625 L 12.046875 0.28125 C 11.503906 0.207031 11.023438 0.0351562 10.609375 -0.234375 C 10.203125 -0.515625 9.90625 -0.9375 9.71875 -1.5 C 9.257812 -0.914062 8.6875 -0.472656 8 -0.171875 C 7.320312 0.128906 6.570312 0.28125 5.75 0.28125 C 4.476562 0.28125 3.476562 -0.078125 2.75 -0.796875 C 2.019531 -1.515625 1.65625 -2.460938 1.65625 -3.640625 C 1.65625 -4.953125 2.160156 -5.957031 3.171875 -6.65625 C 4.191406 -7.351562 5.664062 -7.703125 7.59375 -7.703125 L 9.46875 -7.703125 L 9.46875 -8.765625 C 9.46875 -9.671875 9.195312 -10.316406 8.65625 -10.703125 C 8.125 -11.085938 7.382812 -11.28125 6.4375 -11.28125 C 6.019531 -11.28125 5.53125 -11.226562 4.96875 -11.125 C 4.40625 -11.019531 3.796875 -10.851562 3.140625 -10.625 L 2.609375 -12.15625 C 3.390625 -12.445312 4.117188 -12.648438 4.796875 -12.765625 C 5.484375 -12.890625 6.140625 -12.953125 6.765625 -12.953125 C 8.335938 -12.953125 9.519531 -12.582031 10.3125 -11.84375 C 11.101562 -11.113281 11.5 -10.117188 11.5 -8.859375 Z M 6.265625 -1.265625 C 6.890625 -1.265625 7.488281 -1.421875 8.0625 -1.734375 C 8.632812 -2.054688 9.101562 -2.5 9.46875 -3.0625 L 9.46875 -6.328125 L 7.640625 -6.328125 C 6.242188 -6.328125 5.253906 -6.082031 4.671875 -5.59375 C 4.097656 -5.113281 3.8125 -4.46875 3.8125 -3.65625 C 3.8125 -2.875 4.015625 -2.28125 4.421875 -1.875 C 4.828125 -1.46875 5.441406 -1.265625 6.265625 -1.265625 Z M 6.265625 -1.265625 "/></g></g></g><g fill="#ffffff" fill-opacity="1"><g transform="translate(221.633743, 187.075622)"><g><path d="M 4.953125 -1.71875 L 12.015625 -1.71875 L 11.75 0 L 2.46875 0 L 2.46875 -1.53125 L 9.5 -10.921875 L 3.03125 -10.921875 L 3.03125 -12.6875 L 11.9375 -12.6875 L 11.9375 -11.125 Z M 4.953125 -1.71875 "/></g></g></g><g fill="#ffffff" fill-opacity="1"><g transform="translate(236.082915, 187.075622)"><g><path d="M 11.5 -2.765625 C 11.5 -2.265625 11.582031 -1.894531 11.75 -1.65625 C 11.925781 -1.425781 12.191406 -1.253906 12.546875 -1.140625 L 12.046875 0.28125 C 11.503906 0.207031 11.023438 0.0351562 10.609375 -0.234375 C 10.203125 -0.515625 9.90625 -0.9375 9.71875 -1.5 C 9.257812 -0.914062 8.6875 -0.472656 8 -0.171875 C 7.320312 0.128906 6.570312 0.28125 5.75 0.28125 C 4.476562 0.28125 3.476562 -0.078125 2.75 -0.796875 C 2.019531 -1.515625 1.65625 -2.460938 1.65625 -3.640625 C 1.65625 -4.953125 2.160156 -5.957031 3.171875 -6.65625 C 4.191406 -7.351562 5.664062 -7.703125 7.59375 -7.703125 L 9.46875 -7.703125 L 9.46875 -8.765625 C 9.46875 -9.671875 9.195312 -10.316406 8.65625 -10.703125 C 8.125 -11.085938 7.382812 -11.28125 6.4375 -11.28125 C 6.019531 -11.28125 5.53125 -11.226562 4.96875 -11.125 C 4.40625 -11.019531 3.796875 -10.851562 3.140625 -10.625 L 2.609375 -12.15625 C 3.390625 -12.445312 4.117188 -12.648438 4.796875 -12.765625 C 5.484375 -12.890625 6.140625 -12.953125 6.765625 -12.953125 C 8.335938 -12.953125 9.519531 -12.582031 10.3125 -11.84375 C 11.101562 -11.113281 11.5 -10.117188 11.5 -8.859375 Z M 6.265625 -1.265625 C 6.890625 -1.265625 7.488281 -1.421875 8.0625 -1.734375 C 8.632812 -2.054688 9.101562 -2.5 9.46875 -3.0625 L 9.46875 -6.328125 L 7.640625 -6.328125 C 6.242188 -6.328125 5.253906 -6.082031 4.671875 -5.59375 C 4.097656 -5.113281 3.8125 -4.46875 3.8125 -3.65625 C 3.8125 -2.875 4.015625 -2.28125 4.421875 -1.875 C 4.828125 -1.46875 5.441406 -1.265625 6.265625 -1.265625 Z M 6.265625 -1.265625 "/></g></g></g><g fill="#ffffff" fill-opacity="1"><g transform="translate(250.532087, 187.075622)"><g><path d="M 2.421875 0 L 2.421875 -12.6875 L 4.140625 -12.6875 L 4.296875 -10.921875 C 4.816406 -11.578125 5.460938 -12.078125 6.234375 -12.421875 C 7.003906 -12.773438 7.757812 -12.953125 8.5 -12.953125 C 9.738281 -12.953125 10.640625 -12.617188 11.203125 -11.953125 C 11.773438 -11.296875 12.0625 -10.382812 12.0625 -9.21875 L 12.0625 0 L 10.03125 0 L 10.03125 -7.71875 C 10.03125 -8.582031 9.984375 -9.28125 9.890625 -9.8125 C 9.796875 -10.351562 9.59375 -10.742188 9.28125 -10.984375 C 8.976562 -11.234375 8.503906 -11.359375 7.859375 -11.359375 C 7.367188 -11.359375 6.90625 -11.25 6.46875 -11.03125 C 6.03125 -10.8125 5.640625 -10.539062 5.296875 -10.21875 C 4.953125 -9.894531 4.664062 -9.566406 4.4375 -9.234375 L 4.4375 0 Z M 2.421875 0 "/></g></g></g></svg>