<svg xmlns="http://www.w3.org/2000/svg" xmlns:xlink="http://www.w3.org/1999/xlink" width="500" zoomAndPan="magnify" viewBox="0 0 375 374.999991" height="500" preserveAspectRatio="xMidYMid meet" version="1.0"><defs><filter x="0%" y="0%" width="100%" height="100%" id="id1"><feColorMatrix values="0 0 0 0 1 0 0 0 0 1 0 0 0 0 1 0 0 0 1 0" color-interpolation-filters="sRGB"/></filter><g/><mask id="id2"><g filter="url(#id1)"><rect x="-37.5" width="450" fill="#000000" y="-37.499999" height="449.999989" fill-opacity="0.4392"/></g></mask><clipPath id="id3"><path d="M 2 0.335938 L 196 0.335938 L 196 157 L 2 157 Z M 2 0.335938 " clip-rule="nonzero"/></clipPath><clipPath id="id4"><rect x="0" width="200" y="0" height="165"/></clipPath></defs><g mask="url(#id2)"><g transform="matrix(1, 0, 0, 1, 86, 105)"><g clip-path="url(#id4)"><g clip-path="url(#id3)"><path fill="#000000" d="M 185.816406 47.820312 C 177.308594 33.296875 164.160156 21.75 149.304688 14 C 131.863281 4.882812 112.042969 1.140625 92.503906 0.609375 C 82.234375 0.335938 71.886719 0.867188 61.6875 2.160156 C 61.011719 2.246094 60.34375 2.335938 59.667969 2.433594 C 54.847656 3.109375 50.054688 4.050781 45.410156 5.511719 C 42.019531 6.578125 39.207031 7.734375 36.113281 9.558594 C 33.183594 11.285156 30.351562 13.175781 27.863281 15.515625 C 22.992188 20.105469 18.855469 25.554688 15.242188 31.082031 C 10.429688 38.429688 6.851562 46.585938 4.726562 55.121094 C 2.042969 65.890625 1.238281 78.75 6.03125 88.804688 C 6.394531 95.078125 7.753906 101.308594 10.339844 107.042969 C 13.996094 115.15625 20.101562 121.398438 27.527344 126.183594 C 35.945312 131.59375 45.351562 135.648438 54.453125 139.765625 C 63.773438 143.980469 73.257812 147.859375 83.039062 150.871094 C 100.910156 156.378906 119.851562 158.796875 138.3125 154.859375 C 154.324219 151.449219 169.628906 143.265625 179.417969 129.867188 C 186.875 119.664062 190.558594 107.210938 190.941406 94.664062 C 191.007812 94.539062 191.085938 94.417969 191.15625 94.300781 C 199.023438 79.75 193.644531 61.1875 185.816406 47.820312 Z M 184.511719 119 C 177.683594 134.316406 164.277344 145.234375 148.679688 150.859375 C 112.128906 164.023438 74.328125 148.4375 41.421875 132.535156 C 33.300781 128.601562 25.011719 124.390625 18.710938 117.773438 C 12.703125 111.460938 9.136719 103.25 7.707031 94.714844 C 7.5 93.488281 7.34375 92.273438 7.226562 91.058594 C 9.3125 94.605469 12.203125 97.722656 16.082031 100.152344 C 23.460938 104.777344 32.222656 106.40625 40.375 109.160156 C 50.171875 112.460938 59.324219 117.402344 68.027344 122.9375 C 76.582031 128.386719 84.566406 134.660156 93.070312 140.175781 C 100.558594 145.039062 108.828125 149.273438 117.84375 150.09375 C 125.328125 150.78125 133.363281 149.222656 139.320312 144.410156 C 146.589844 138.539062 147.835938 128.78125 153.546875 121.78125 C 163.179688 109.984375 181.199219 109.148438 189.851562 96.390625 C 189.429688 104.171875 187.695312 111.863281 184.511719 119 Z M 189.941406 94.085938 C 187.65625 98.035156 184.421875 101.398438 180.328125 104.023438 C 174.136719 107.992188 167.101562 110.433594 160.847656 114.304688 C 157.871094 116.148438 155.058594 118.332031 152.832031 121.058594 C 150.238281 124.234375 148.570312 127.984375 146.855469 131.679688 C 145.042969 135.589844 143.113281 139.511719 139.9375 142.511719 C 136.980469 145.3125 133.246094 147.183594 129.316406 148.203125 C 110.816406 153.027344 94.660156 140.15625 80.539062 130.160156 C 72.671875 124.59375 64.617188 119.234375 56.050781 114.785156 C 48.183594 110.699219 40.011719 107.914062 31.554688 105.367188 C 23.238281 102.867188 14.46875 99.789062 9.203125 92.421875 C 8.382812 91.265625 7.675781 90.050781 7.050781 88.792969 C 6.746094 83.492188 7.195312 78.160156 8.234375 72.949219 C 8.675781 70.761719 9.203125 68.585938 9.832031 66.441406 C 10.9375 62.636719 12.292969 58.816406 13.808594 55.148438 C 15.300781 51.554688 17.121094 48.105469 19.289062 44.871094 C 24.441406 37.195312 30.871094 30.707031 38.238281 25.132812 C 42.15625 22.171875 46.742188 19.847656 51.222656 17.851562 C 69.496094 9.6875 90.238281 8.011719 109.867188 11.273438 C 142.691406 16.742188 175.871094 37.175781 186.453125 70.234375 C 188.910156 77.886719 190.117188 86.011719 189.941406 94.085938 Z M 190.96875 92.144531 C 190.960938 89.070312 190.742188 86 190.351562 82.964844 C 185.726562 47.75 156.125 22.730469 123.40625 13.292969 C 117.214844 11.507812 110.875 10.246094 104.476562 9.519531 C 95.824219 8.539062 87.054688 8.539062 78.414062 9.597656 C 69.847656 10.648438 61.402344 12.734375 53.386719 15.957031 C 49.398438 17.566406 45.527344 19.449219 41.816406 21.613281 C 37.816406 23.945312 34.320312 26.757812 30.898438 29.875 C 29.234375 31.394531 27.636719 32.972656 26.109375 34.628906 C 23.050781 37.929688 20.289062 41.488281 17.835938 45.261719 C 15.320312 49.121094 13.449219 53.40625 11.734375 57.679688 C 9.929688 62.167969 8.441406 66.78125 7.421875 71.515625 C 6.667969 75.035156 6.175781 78.613281 6 82.21875 C 5.933594 83.5625 5.914062 84.914062 5.941406 86.265625 C 3.679688 80.316406 3.257812 73.632812 3.746094 67.359375 C 5.117188 49.503906 13.113281 33.558594 25 20.476562 C 30.871094 14.019531 37.09375 9.234375 45.460938 6.492188 C 54.476562 3.542969 64.007812 2.582031 73.433594 2.03125 C 74.992188 1.945312 76.542969 1.867188 78.097656 1.789062 C 97.734375 0.867188 117.753906 2.648438 136.324219 9.402344 C 151.992188 15.105469 166.414062 24.5625 177.183594 37.363281 C 187.558594 49.699219 195.613281 66.519531 193.585938 83.011719 C 193.183594 86.296875 192.292969 89.351562 190.96875 92.144531 Z M 190.96875 92.144531 " fill-opacity="1" fill-rule="nonzero"/></g></g></g></g><g fill="#001524" fill-opacity="1"><g transform="translate(106.040366, 187.127191)"><g><path d="M 11.5 -2.765625 C 11.5 -2.265625 11.582031 -1.894531 11.75 -1.65625 C 11.925781 -1.425781 12.191406 -1.253906 12.546875 -1.140625 L 12.046875 0.28125 C 11.503906 0.207031 11.023438 0.0351562 10.609375 -0.234375 C 10.203125 -0.515625 9.90625 -0.9375 9.71875 -1.5 C 9.257812 -0.914062 8.6875 -0.472656 8 -0.171875 C 7.320312 0.128906 6.570312 0.28125 5.75 0.28125 C 4.476562 0.28125 3.476562 -0.078125 2.75 -0.796875 C 2.019531 -1.515625 1.65625 -2.460938 1.65625 -3.640625 C 1.65625 -4.953125 2.160156 -5.957031 3.171875 -6.65625 C 4.191406 -7.351562 5.664062 -7.703125 7.59375 -7.703125 L 9.46875 -7.703125 L 9.46875 -8.765625 C 9.46875 -9.671875 9.195312 -10.316406 8.65625 -10.703125 C 8.125 -11.085938 7.382812 -11.28125 6.4375 -11.28125 C 6.019531 -11.28125 5.53125 -11.226562 4.96875 -11.125 C 4.40625 -11.019531 3.796875 -10.851562 3.140625 -10.625 L 2.609375 -12.15625 C 3.390625 -12.445312 4.117188 -12.648438 4.796875 -12.765625 C 5.484375 -12.890625 6.140625 -12.953125 6.765625 -12.953125 C 8.335938 -12.953125 9.519531 -12.582031 10.3125 -11.84375 C 11.101562 -11.113281 11.5 -10.117188 11.5 -8.859375 Z M 6.265625 -1.265625 C 6.890625 -1.265625 7.488281 -1.421875 8.0625 -1.734375 C 8.632812 -2.054688 9.101562 -2.5 9.46875 -3.0625 L 9.46875 -6.328125 L 7.640625 -6.328125 C 6.242188 -6.328125 5.253906 -6.082031 4.671875 -5.59375 C 4.097656 -5.113281 3.8125 -4.46875 3.8125 -3.65625 C 3.8125 -2.875 4.015625 -2.28125 4.421875 -1.875 C 4.828125 -1.46875 5.441406 -1.265625 6.265625 -1.265625 Z M 6.265625 -1.265625 "/></g></g></g><g fill="#001524" fill-opacity="1"><g transform="translate(120.496074, 187.127191)"><g><path d="M 4.4375 -11.03125 C 4.90625 -11.644531 5.441406 -12.117188 6.046875 -12.453125 C 6.660156 -12.785156 7.332031 -12.953125 8.0625 -12.953125 C 9.195312 -12.953125 10.113281 -12.675781 10.8125 -12.125 C 11.507812 -11.582031 12.015625 -10.816406 12.328125 -9.828125 C 12.648438 -8.835938 12.8125 -7.675781 12.8125 -6.34375 C 12.8125 -5.070312 12.617188 -3.9375 12.234375 -2.9375 C 11.847656 -1.9375 11.285156 -1.148438 10.546875 -0.578125 C 9.804688 -0.00390625 8.890625 0.28125 7.796875 0.28125 C 6.328125 0.28125 5.175781 -0.25 4.34375 -1.3125 L 4.1875 0 L 2.421875 0 L 2.421875 -17.796875 L 4.4375 -18.046875 Z M 7.3125 -1.359375 C 8.375 -1.359375 9.1875 -1.765625 9.75 -2.578125 C 10.320312 -3.398438 10.609375 -4.660156 10.609375 -6.359375 C 10.609375 -7.460938 10.492188 -8.382812 10.265625 -9.125 C 10.046875 -9.863281 9.710938 -10.414062 9.265625 -10.78125 C 8.816406 -11.144531 8.269531 -11.328125 7.625 -11.328125 C 6.914062 -11.328125 6.296875 -11.113281 5.765625 -10.6875 C 5.234375 -10.269531 4.789062 -9.800781 4.4375 -9.28125 L 4.4375 -3 C 4.769531 -2.5 5.1875 -2.097656 5.6875 -1.796875 C 6.1875 -1.503906 6.726562 -1.359375 7.3125 -1.359375 Z M 7.3125 -1.359375 "/></g></g></g><g fill="#001524" fill-opacity="1"><g transform="translate(134.951781, 187.127191)"><g><path d="M 2.546875 0 L 2.546875 -1.546875 L 4.515625 -1.546875 L 4.515625 -11.125 L 2.546875 -11.125 L 2.546875 -12.6875 L 6.0625 -12.6875 L 6.4375 -9.6875 C 6.925781 -10.726562 7.519531 -11.535156 8.21875 -12.109375 C 8.914062 -12.679688 9.835938 -12.96875 10.984375 -12.96875 C 11.335938 -12.96875 11.648438 -12.941406 11.921875 -12.890625 C 12.203125 -12.835938 12.488281 -12.769531 12.78125 -12.6875 L 12.1875 -10.875 C 11.925781 -10.945312 11.6875 -11 11.46875 -11.03125 C 11.25 -11.070312 11 -11.09375 10.71875 -11.09375 C 9.75 -11.09375 8.914062 -10.742188 8.21875 -10.046875 C 7.519531 -9.359375 6.960938 -8.316406 6.546875 -6.921875 L 6.546875 -1.546875 L 9.125 -1.546875 L 9.125 0 Z M 10.828125 -8.390625 L 10.828125 -11.15625 L 11.03125 -12.6875 L 12.78125 -12.6875 L 12.5 -8.390625 Z M 10.828125 -8.390625 "/></g></g></g><g fill="#001524" fill-opacity="1"><g transform="translate(149.407489, 187.127191)"><g><path d="M 8.84375 -12.6875 L 8.84375 -1.609375 L 12.421875 -1.609375 L 12.421875 0 L 2.90625 0 L 2.90625 -1.609375 L 6.8125 -1.609375 L 6.8125 -11.078125 L 3.03125 -11.078125 L 3.03125 -12.6875 Z M 7.234375 -18.625 C 7.679688 -18.625 8.035156 -18.488281 8.296875 -18.21875 C 8.566406 -17.945312 8.703125 -17.613281 8.703125 -17.21875 C 8.703125 -16.800781 8.566406 -16.453125 8.296875 -16.171875 C 8.035156 -15.898438 7.679688 -15.765625 7.234375 -15.765625 C 6.804688 -15.765625 6.453125 -15.898438 6.171875 -16.171875 C 5.898438 -16.453125 5.765625 -16.800781 5.765625 -17.21875 C 5.765625 -17.613281 5.898438 -17.945312 6.171875 -18.21875 C 6.453125 -18.488281 6.804688 -18.625 7.234375 -18.625 Z M 7.234375 -18.625 "/></g></g></g><g fill="#001524" fill-opacity="1"><g transform="translate(163.863196, 187.127191)"><g><path d="M 7.359375 -17.796875 L 7.359375 -3.125 C 7.359375 -2.5 7.550781 -2.054688 7.9375 -1.796875 C 8.332031 -1.535156 8.835938 -1.40625 9.453125 -1.40625 C 9.835938 -1.40625 10.203125 -1.445312 10.546875 -1.53125 C 10.898438 -1.613281 11.25 -1.722656 11.59375 -1.859375 L 12.125 -0.375 C 11.78125 -0.207031 11.351562 -0.0546875 10.84375 0.078125 C 10.332031 0.210938 9.757812 0.28125 9.125 0.28125 C 8 0.28125 7.085938 -0.03125 6.390625 -0.65625 C 5.691406 -1.28125 5.34375 -2.140625 5.34375 -3.234375 L 5.34375 -16.1875 L 1.453125 -16.1875 L 1.453125 -17.796875 Z M 7.359375 -17.796875 "/></g></g></g><g fill="#001524" fill-opacity="1"><g transform="translate(178.318904, 187.127191)"><g><path d="M 1.203125 4.375 L 1.203125 2.609375 L 13.25 2.609375 L 13.25 4.375 Z M 1.203125 4.375 "/></g></g></g><g fill="#001524" fill-opacity="1"><g transform="translate(192.774612, 187.127191)"><g><path d="M 4.4375 -11.03125 C 4.90625 -11.644531 5.441406 -12.117188 6.046875 -12.453125 C 6.660156 -12.785156 7.332031 -12.953125 8.0625 -12.953125 C 9.195312 -12.953125 10.113281 -12.675781 10.8125 -12.125 C 11.507812 -11.582031 12.015625 -10.816406 12.328125 -9.828125 C 12.648438 -8.835938 12.8125 -7.675781 12.8125 -6.34375 C 12.8125 -5.070312 12.617188 -3.9375 12.234375 -2.9375 C 11.847656 -1.9375 11.285156 -1.148438 10.546875 -0.578125 C 9.804688 -0.00390625 8.890625 0.28125 7.796875 0.28125 C 6.328125 0.28125 5.175781 -0.25 4.34375 -1.3125 L 4.1875 0 L 2.421875 0 L 2.421875 -17.796875 L 4.4375 -18.046875 Z M 7.3125 -1.359375 C 8.375 -1.359375 9.1875 -1.765625 9.75 -2.578125 C 10.320312 -3.398438 10.609375 -4.660156 10.609375 -6.359375 C 10.609375 -7.460938 10.492188 -8.382812 10.265625 -9.125 C 10.046875 -9.863281 9.710938 -10.414062 9.265625 -10.78125 C 8.816406 -11.144531 8.269531 -11.328125 7.625 -11.328125 C 6.914062 -11.328125 6.296875 -11.113281 5.765625 -10.6875 C 5.234375 -10.269531 4.789062 -9.800781 4.4375 -9.28125 L 4.4375 -3 C 4.769531 -2.5 5.1875 -2.097656 5.6875 -1.796875 C 6.1875 -1.503906 6.726562 -1.359375 7.3125 -1.359375 Z M 7.3125 -1.359375 "/></g></g></g><g fill="#001524" fill-opacity="1"><g transform="translate(207.230319, 187.127191)"><g><path d="M 11.5 -2.765625 C 11.5 -2.265625 11.582031 -1.894531 11.75 -1.65625 C 11.925781 -1.425781 12.191406 -1.253906 12.546875 -1.140625 L 12.046875 0.28125 C 11.503906 0.207031 11.023438 0.0351562 10.609375 -0.234375 C 10.203125 -0.515625 9.90625 -0.9375 9.71875 -1.5 C 9.257812 -0.914062 8.6875 -0.472656 8 -0.171875 C 7.320312 0.128906 6.570312 0.28125 5.75 0.28125 C 4.476562 0.28125 3.476562 -0.078125 2.75 -0.796875 C 2.019531 -1.515625 1.65625 -2.460938 1.65625 -3.640625 C 1.65625 -4.953125 2.160156 -5.957031 3.171875 -6.65625 C 4.191406 -7.351562 5.664062 -7.703125 7.59375 -7.703125 L 9.46875 -7.703125 L 9.46875 -8.765625 C 9.46875 -9.671875 9.195312 -10.316406 8.65625 -10.703125 C 8.125 -11.085938 7.382812 -11.28125 6.4375 -11.28125 C 6.019531 -11.28125 5.53125 -11.226562 4.96875 -11.125 C 4.40625 -11.019531 3.796875 -10.851562 3.140625 -10.625 L 2.609375 -12.15625 C 3.390625 -12.445312 4.117188 -12.648438 4.796875 -12.765625 C 5.484375 -12.890625 6.140625 -12.953125 6.765625 -12.953125 C 8.335938 -12.953125 9.519531 -12.582031 10.3125 -11.84375 C 11.101562 -11.113281 11.5 -10.117188 11.5 -8.859375 Z M 6.265625 -1.265625 C 6.890625 -1.265625 7.488281 -1.421875 8.0625 -1.734375 C 8.632812 -2.054688 9.101562 -2.5 9.46875 -3.0625 L 9.46875 -6.328125 L 7.640625 -6.328125 C 6.242188 -6.328125 5.253906 -6.082031 4.671875 -5.59375 C 4.097656 -5.113281 3.8125 -4.46875 3.8125 -3.65625 C 3.8125 -2.875 4.015625 -2.28125 4.421875 -1.875 C 4.828125 -1.46875 5.441406 -1.265625 6.265625 -1.265625 Z M 6.265625 -1.265625 "/></g></g></g><g fill="#001524" fill-opacity="1"><g transform="translate(221.686027, 187.127191)"><g><path d="M 4.953125 -1.71875 L 12.015625 -1.71875 L 11.75 0 L 2.46875 0 L 2.46875 -1.53125 L 9.5 -10.921875 L 3.03125 -10.921875 L 3.03125 -12.6875 L 11.9375 -12.6875 L 11.9375 -11.125 Z M 4.953125 -1.71875 "/></g></g></g><g fill="#001524" fill-opacity="1"><g transform="translate(236.141741, 187.127191)"><g><path d="M 11.5 -2.765625 C 11.5 -2.265625 11.582031 -1.894531 11.75 -1.65625 C 11.925781 -1.425781 12.191406 -1.253906 12.546875 -1.140625 L 12.046875 0.28125 C 11.503906 0.207031 11.023438 0.0351562 10.609375 -0.234375 C 10.203125 -0.515625 9.90625 -0.9375 9.71875 -1.5 C 9.257812 -0.914062 8.6875 -0.472656 8 -0.171875 C 7.320312 0.128906 6.570312 0.28125 5.75 0.28125 C 4.476562 0.28125 3.476562 -0.078125 2.75 -0.796875 C 2.019531 -1.515625 1.65625 -2.460938 1.65625 -3.640625 C 1.65625 -4.953125 2.160156 -5.957031 3.171875 -6.65625 C 4.191406 -7.351562 5.664062 -7.703125 7.59375 -7.703125 L 9.46875 -7.703125 L 9.46875 -8.765625 C 9.46875 -9.671875 9.195312 -10.316406 8.65625 -10.703125 C 8.125 -11.085938 7.382812 -11.28125 6.4375 -11.28125 C 6.019531 -11.28125 5.53125 -11.226562 4.96875 -11.125 C 4.40625 -11.019531 3.796875 -10.851562 3.140625 -10.625 L 2.609375 -12.15625 C 3.390625 -12.445312 4.117188 -12.648438 4.796875 -12.765625 C 5.484375 -12.890625 6.140625 -12.953125 6.765625 -12.953125 C 8.335938 -12.953125 9.519531 -12.582031 10.3125 -11.84375 C 11.101562 -11.113281 11.5 -10.117188 11.5 -8.859375 Z M 6.265625 -1.265625 C 6.890625 -1.265625 7.488281 -1.421875 8.0625 -1.734375 C 8.632812 -2.054688 9.101562 -2.5 9.46875 -3.0625 L 9.46875 -6.328125 L 7.640625 -6.328125 C 6.242188 -6.328125 5.253906 -6.082031 4.671875 -5.59375 C 4.097656 -5.113281 3.8125 -4.46875 3.8125 -3.65625 C 3.8125 -2.875 4.015625 -2.28125 4.421875 -1.875 C 4.828125 -1.46875 5.441406 -1.265625 6.265625 -1.265625 Z M 6.265625 -1.265625 "/></g></g></g><g fill="#001524" fill-opacity="1"><g transform="translate(250.597455, 187.127191)"><g><path d="M 2.421875 0 L 2.421875 -12.6875 L 4.140625 -12.6875 L 4.296875 -10.921875 C 4.816406 -11.578125 5.460938 -12.078125 6.234375 -12.421875 C 7.003906 -12.773438 7.757812 -12.953125 8.5 -12.953125 C 9.738281 -12.953125 10.640625 -12.617188 11.203125 -11.953125 C 11.773438 -11.296875 12.0625 -10.382812 12.0625 -9.21875 L 12.0625 0 L 10.03125 0 L 10.03125 -7.71875 C 10.03125 -8.582031 9.984375 -9.28125 9.890625 -9.8125 C 9.796875 -10.351562 9.59375 -10.742188 9.28125 -10.984375 C 8.976562 -11.234375 8.503906 -11.359375 7.859375 -11.359375 C 7.367188 -11.359375 6.90625 -11.25 6.46875 -11.03125 C 6.03125 -10.8125 5.640625 -10.539062 5.296875 -10.21875 C 4.953125 -9.894531 4.664062 -9.566406 4.4375 -9.234375 L 4.4375 0 Z M 2.421875 0 "/></g></g></g></svg>