<svg xmlns="http://www.w3.org/2000/svg" xmlns:xlink="http://www.w3.org/1999/xlink" width="500" zoomAndPan="magnify" viewBox="0 0 375 374.999991" height="500" preserveAspectRatio="xMidYMid meet" version="1.0"><defs><clipPath id="id1"><path d="M 112.5 113 L 262.5 113 L 262.5 261 L 112.5 261 Z M 112.5 113 " clip-rule="nonzero"/></clipPath></defs><g clip-path="url(#id1)"><path fill="#7c79ad" d="M 187.5 113.90625 C 146.0625 113.90625 112.5 147.46875 112.5 188.90625 C 112.5 222.09375 133.96875 250.125 163.78125 260.0625 C 167.53125 260.71875 168.9375 258.46875 168.9375 256.5 C 168.9375 254.71875 168.84375 248.8125 168.84375 242.53125 C 150 246 145.125 237.9375 143.625 233.71875 C 142.78125 231.5625 139.125 224.90625 135.9375 223.125 C 133.3125 221.71875 129.5625 218.25 135.84375 218.15625 C 141.75 218.0625 145.96875 223.59375 147.375 225.84375 C 154.125 237.1875 164.90625 234 169.21875 232.03125 C 169.875 227.15625 171.84375 223.875 174 222 C 157.3125 220.125 139.875 213.65625 139.875 184.96875 C 139.875 176.8125 142.78125 170.0625 147.5625 164.8125 C 146.8125 162.9375 144.1875 155.25 148.3125 144.9375 C 148.3125 144.9375 154.59375 142.96875 168.9375 152.625 C 174.9375 150.9375 181.3125 150.09375 187.6875 150.09375 C 194.0625 150.09375 200.4375 150.9375 206.4375 152.625 C 220.78125 142.875 227.0625 144.9375 227.0625 144.9375 C 231.1875 155.25 228.5625 162.9375 227.8125 164.8125 C 232.59375 170.0625 235.5 176.71875 235.5 184.96875 C 235.5 213.75 217.96875 220.125 201.28125 222 C 204 224.34375 206.34375 228.84375 206.34375 235.875 C 206.34375 245.90625 206.25 253.96875 206.25 256.5 C 206.25 258.46875 207.65625 260.8125 211.40625 260.0625 C 213.253906 259.4375 215.074219 258.742188 216.867188 257.980469 C 218.660156 257.214844 220.421875 256.378906 222.148438 255.476562 C 223.878906 254.574219 225.570312 253.605469 227.222656 252.570312 C 228.875 251.539062 230.484375 250.441406 232.050781 249.28125 C 233.621094 248.121094 235.140625 246.902344 236.613281 245.625 C 238.085938 244.347656 239.507812 243.015625 240.875 241.628906 C 242.242188 240.238281 243.558594 238.800781 244.8125 237.308594 C 246.070312 235.820312 247.265625 234.28125 248.402344 232.699219 C 249.542969 231.113281 250.613281 229.488281 251.625 227.824219 C 252.636719 226.15625 253.578125 224.453125 254.457031 222.710938 C 255.335938 220.972656 256.144531 219.199219 256.882812 217.394531 C 257.625 215.59375 258.292969 213.761719 258.890625 211.90625 C 259.488281 210.050781 260.011719 208.175781 260.460938 206.28125 C 260.914062 204.382812 261.289062 202.472656 261.59375 200.546875 C 261.894531 198.621094 262.121094 196.6875 262.273438 194.746094 C 262.425781 192.800781 262.5 190.855469 262.5 188.90625 C 262.5 147.46875 228.9375 113.90625 187.5 113.90625 Z M 187.5 113.90625 " fill-opacity="1" fill-rule="nonzero"/></g></svg>