<svg xmlns="http://www.w3.org/2000/svg" xmlns:xlink="http://www.w3.org/1999/xlink" width="500" zoomAndPan="magnify" viewBox="0 0 375 374.999991" height="500" preserveAspectRatio="xMidYMid meet" version="1.0"><defs><clipPath id="id1"><path d="M 127.5 127.5 L 277.5 127.5 L 277.5 277.5 L 127.5 277.5 Z M 127.5 127.5 " clip-rule="nonzero"/></clipPath></defs><g clip-path="url(#id1)"><path fill="#7c79ad" d="M 202.46875 141.023438 C 222.484375 141.023438 224.847656 141.089844 232.769531 141.453125 C 240.066406 141.78125 244.042969 142.996094 246.703125 144.046875 C 250.1875 145.394531 252.6875 147.039062 255.316406 149.667969 C 257.945312 152.296875 259.554688 154.796875 260.9375 158.277344 C 261.953125 160.90625 263.171875 164.886719 263.53125 172.214844 C 263.894531 180.132812 263.960938 182.5 263.960938 202.515625 C 263.960938 222.53125 263.894531 224.898438 263.53125 232.820312 C 263.203125 240.113281 261.988281 244.089844 260.9375 246.753906 C 259.589844 250.238281 257.945312 252.734375 255.316406 255.363281 C 252.6875 257.992188 250.1875 259.605469 246.703125 260.984375 C 244.074219 262.003906 240.097656 263.21875 232.769531 263.582031 C 224.847656 263.941406 222.484375 264.007812 202.46875 264.007812 C 182.453125 264.007812 180.085938 263.941406 172.164062 263.582031 C 164.867188 263.253906 160.890625 262.035156 158.230469 260.984375 C 154.746094 259.636719 152.246094 257.992188 149.617188 255.363281 C 146.988281 252.734375 145.378906 250.238281 144 246.753906 C 142.980469 244.125 141.765625 240.148438 141.402344 232.820312 C 141.039062 224.898438 140.976562 222.53125 140.976562 202.515625 C 140.976562 182.5 141.039062 180.132812 141.402344 172.214844 C 141.730469 164.917969 142.945312 160.941406 144 158.277344 C 145.347656 154.796875 146.988281 152.296875 149.617188 149.667969 C 152.246094 147.039062 154.746094 145.429688 158.230469 144.046875 C 160.859375 143.027344 164.835938 141.8125 172.164062 141.453125 C 180.085938 141.089844 182.453125 141.023438 202.46875 141.023438 M 202.46875 127.515625 C 182.089844 127.515625 179.558594 127.613281 171.539062 127.976562 C 163.554688 128.339844 158.097656 129.621094 153.332031 131.460938 C 148.402344 133.367188 144.230469 135.929688 140.054688 140.105469 C 135.914062 144.277344 133.351562 148.453125 131.445312 153.382812 C 129.601562 158.148438 128.320312 163.601562 127.960938 171.589844 C 127.597656 179.574219 127.5 182.140625 127.5 202.484375 C 127.5 222.859375 127.597656 225.390625 127.960938 233.410156 C 128.320312 241.398438 129.601562 246.851562 131.445312 251.617188 C 133.351562 256.546875 135.914062 260.722656 140.085938 264.894531 C 144.261719 269.070312 148.4375 271.632812 153.367188 273.539062 C 158.132812 275.378906 163.585938 276.660156 171.574219 277.023438 C 179.558594 277.386719 182.125 277.484375 202.5 277.484375 C 222.875 277.484375 225.40625 277.386719 233.425781 277.023438 C 241.414062 276.660156 246.867188 275.378906 251.632812 273.539062 C 256.5625 271.632812 260.738281 269.070312 264.914062 264.894531 C 269.085938 260.722656 271.648438 256.546875 273.554688 251.617188 C 275.398438 246.851562 276.679688 241.398438 277.039062 233.410156 C 277.402344 225.425781 277.5 222.859375 277.5 202.484375 C 277.5 182.105469 277.402344 179.574219 277.039062 171.558594 C 276.679688 163.570312 275.398438 158.113281 273.554688 153.347656 C 271.648438 148.417969 269.085938 144.246094 264.914062 140.070312 C 260.738281 135.898438 256.5625 133.332031 251.632812 131.425781 C 246.867188 129.585938 241.414062 128.304688 233.425781 127.945312 C 225.40625 127.613281 222.84375 127.515625 202.46875 127.515625 " fill-opacity="1" fill-rule="nonzero"/></g><path fill="#7c79ad" d="M 202.46875 163.996094 C 181.203125 163.996094 163.980469 181.21875 163.980469 202.484375 C 163.980469 223.746094 181.234375 241.003906 202.5 241.003906 C 223.765625 241.003906 241.019531 223.78125 241.019531 202.484375 C 240.984375 181.21875 223.730469 163.996094 202.46875 163.996094 M 202.46875 227.496094 C 188.664062 227.496094 177.488281 216.320312 177.488281 202.515625 C 177.488281 188.710938 188.664062 177.539062 202.46875 177.539062 C 216.269531 177.539062 227.445312 188.710938 227.445312 202.515625 C 227.476562 216.289062 216.269531 227.496094 202.46875 227.496094 " fill-opacity="1" fill-rule="nonzero"/><path fill="#7c79ad" d="M 251.503906 162.484375 C 251.503906 167.449219 247.460938 171.492188 242.496094 171.492188 C 237.535156 171.492188 233.492188 167.449219 233.492188 162.484375 C 233.492188 157.523438 237.535156 153.480469 242.496094 153.480469 C 247.460938 153.480469 251.503906 157.488281 251.503906 162.484375 " fill-opacity="1" fill-rule="nonzero"/></svg>